<svg id="Layer_1" data-name="Layer 1" xmlns="http://www.w3.org/2000/svg" xmlns:xlink="http://www.w3.org/1999/xlink" viewBox="0 0 600 450"><defs><style>.cls-1,.cls-2,.cls-21{opacity:0.15;}.cls-1{fill:url(#linear-gradient);}.cls-2{fill:url(#linear-gradient-2);}.cls-3{fill:#d1d3d4;}.cls-4{fill:#939598;}.cls-5{fill:#F99316;}.cls-6{fill:#3dba85;}.cls-11,.cls-7{fill:#e6e6e6;}.cls-8{fill:#359366;}.cls-9{fill:#4c9aff;}.cls-10,.cls-21,.cls-22,.cls-23{fill:#0562e8;}.cls-11,.cls-22{opacity:0.25;}.cls-12{opacity:0.35;fill:url(#linear-gradient-3);}.cls-13{fill:#ccc;}.cls-14{fill:#f2f2f2;}.cls-15{fill:#fff;}.cls-16,.cls-17,.cls-18,.cls-19,.cls-24{fill:none;stroke-miterlimit:10;}.cls-16,.cls-17,.cls-18{stroke:#ccc;}.cls-16{stroke-width:2.31px;}.cls-16,.cls-19{stroke-dasharray:8.09 8.09;}.cls-17,.cls-18{stroke-width:2.31px;}.cls-17{stroke-dasharray:6.01 6.01;}.cls-18{stroke-dasharray:8.19 8.19;}.cls-19{stroke:#4c9aff;stroke-width:2px;}.cls-20{opacity:0.75;}.cls-23{opacity:0.5;}.cls-24{stroke:#fff;stroke-width:2.19px;}</style><linearGradient id="linear-gradient" x1="-98.95" y1="228.25" x2="281.73" y2="224.03" gradientUnits="userSpaceOnUse"><stop offset="0" stop-color="#d1d3d4" stop-opacity="0"/><stop offset="1" stop-color="#bcbec0"/></linearGradient><linearGradient id="linear-gradient-2" x1="234.8" y1="225" x2="570.81" y2="225" xlink:href="#linear-gradient"/><linearGradient id="linear-gradient-3" x1="119.88" y1="227.28" x2="374.23" y2="228.46" xlink:href="#linear-gradient"/></defs><title>stream-real-time-big-data-analytics-solutions</title><path class="cls-1" d="M359.28,234.25,202.59,415.54a10.26,10.26,0,0,1-16,0L29.91,234.25a14.56,14.56,0,0,1,0-18.5L186.6,34.46a10.26,10.26,0,0,1,16,0L359.28,215.75A14.56,14.56,0,0,1,359.28,234.25Z"/><path class="cls-2" d="M567.49,234.25,410.8,415.54a10.26,10.26,0,0,1-16,0L238.12,234.25a14.56,14.56,0,0,1,0-18.5L394.81,34.46a10.26,10.26,0,0,1,16,0L567.49,215.75A14.56,14.56,0,0,1,567.49,234.25Z"/><rect class="cls-3" x="50.12" y="366.98" width="523.97" height="3.98"/><rect class="cls-4" x="24.16" y="366.98" width="25.97" height="3.98"/><polygon class="cls-5" points="48.36 78.96 46.9 78.96 46.44 74.3 46.74 72.42 48.52 72.42 48.83 74.3 48.36 78.96"/><polygon class="cls-5" points="46.9 84.38 48.36 84.38 48.83 89.05 48.52 90.93 46.74 90.93 46.44 89.05 46.9 84.38"/><polygon class="cls-5" points="50.34 82.4 50.34 80.94 55 80.48 56.89 80.79 56.89 82.56 55 82.87 50.34 82.4"/><polygon class="cls-5" points="44.92 80.94 44.92 82.4 40.26 82.87 38.37 82.56 38.37 80.79 40.26 80.48 44.92 80.94"/><polygon class="cls-6" points="354.74 158.98 352.39 158.98 351.65 151.52 352.15 148.5 354.98 148.5 355.48 151.52 354.74 158.98"/><polygon class="cls-6" points="352.39 167.67 354.74 167.67 355.48 175.14 354.98 178.15 352.15 178.15 351.65 175.14 352.39 167.67"/><polygon class="cls-6" points="357.91 164.5 357.91 162.15 365.38 161.41 368.39 161.91 368.39 164.74 365.38 165.24 357.91 164.5"/><polygon class="cls-6" points="349.22 162.15 349.22 164.5 341.75 165.24 338.74 164.74 338.74 161.91 341.75 161.41 349.22 162.15"/><polygon class="cls-7" points="256.85 285.02 254.44 285.02 253.68 277.34 254.19 274.24 257.1 274.24 257.61 277.34 256.85 285.02"/><polygon class="cls-7" points="254.44 293.95 256.85 293.95 257.61 301.63 257.1 304.74 254.19 304.74 253.68 301.63 254.44 293.95"/><polygon class="cls-7" points="260.11 290.69 260.11 288.28 267.79 287.52 270.89 288.03 270.89 290.95 267.79 291.46 260.11 290.69"/><polygon class="cls-7" points="251.18 288.28 251.18 290.69 243.5 291.46 240.4 290.95 240.4 288.03 243.5 287.52 251.18 288.28"/><path class="cls-6" d="M519.58,225.6a1.05,1.05,0,0,1,.83,1.22l-.38,2a8.47,8.47,0,0,0-9.63,6.37l-1.82-.35a1.05,1.05,0,0,1-.83-1.22,10.15,10.15,0,0,1,11.83-8Z"/><path class="cls-8" d="M520,228.84l-1.32,6.89a1,1,0,0,1-1.22.83l-7.09-1.35a8.47,8.47,0,0,1,9.63-6.37Z"/><circle class="cls-9" cx="581.96" cy="267.91" r="7.87"/><circle class="cls-10" cx="24.16" cy="315.18" r="3.81"/><circle class="cls-11" cx="295.7" cy="78.99" r="12.52"/><circle class="cls-12" cx="311" cy="228.16" r="59.78"/><path class="cls-13" d="M338.4,228.5a25.77,25.77,0,0,1-15,22.85,28.16,28.16,0,0,1-2.74,1.07l-.26.08-.36.11-.77.22a25.59,25.59,0,0,1-23.6-5.61c-.41-.37-.81-.75-1.2-1.13a25.79,25.79,0,0,1,1.42-37.74,26.36,26.36,0,0,1,10-5.3,25.61,25.61,0,0,1,5.47-.88h0a25.26,25.26,0,0,1,8.6,1,25.64,25.64,0,0,1,18.41,23.11C338.4,227.05,338.41,227.78,338.4,228.5Z"/><path class="cls-10" d="M340.45,192.66l6.35-6.12c1.64,7.86,3.26,15.58,4.91,23.48l-23.28-5.72,6.44-6.25c-12.39-10.35-32.63-11.77-47.15,0a37.72,37.72,0,0,0-7.28,51.06,37.8,37.8,0,0,0,54.13,8.1l5,5.44a45.17,45.17,0,0,1-53.81,1.95,45.24,45.24,0,1,1,54.68-72Z"/><path class="cls-10" d="M342,260.57l-5-5.44a38.11,38.11,0,0,0,6.15-7.39l6.31,3.9A45.32,45.32,0,0,1,342,260.57Z"/><path class="cls-10" d="M354.47,241.4c-1.12,2.59-2.17,5-3.25,7.54l-3.91-2.41c-.71-.44-1.41-.89-2.13-1.31-.34-.2-.36-.41-.2-.75.43-.85.8-1.73,1.23-2.58.1-.2.34-.46.52-.47C349.24,241.39,351.74,241.4,354.47,241.4Z"/><rect class="cls-10" x="310.53" y="204.69" width="3.23" height="26.32" rx="1.61"/><rect class="cls-10" x="316.67" y="225.15" width="3.23" height="20.6" rx="1.61" transform="translate(709.83 176.87) rotate(135)"/><rect class="cls-13" x="384.99" y="90.91" width="178.46" height="114.11" rx="1.67"/><rect class="cls-14" x="386.47" y="90.91" width="175.49" height="112.21"/><rect class="cls-7" x="386.47" y="90.91" width="127.61" height="112.21"/><rect class="cls-6" x="535.9" y="97.78" width="20.83" height="4.33" transform="translate(1092.63 199.88) rotate(180)"/><rect class="cls-10" x="528.83" y="106.18" width="20.83" height="4.33" transform="translate(1078.49 216.68) rotate(180)"/><rect class="cls-10" x="520.44" y="114.58" width="36.29" height="4.33" transform="translate(1077.17 233.49) rotate(180)"/><rect class="cls-5" x="537.94" y="122.98" width="14.54" height="4.33" transform="translate(1090.43 250.29) rotate(180)"/><rect class="cls-10" x="518.15" y="122.98" width="14.54" height="4.33" transform="translate(1050.84 250.29) rotate(180)"/><rect class="cls-6" x="530.27" y="131.39" width="26.46" height="4.33" transform="translate(1087 267.1) rotate(180)"/><rect class="cls-10" x="526.95" y="139.79" width="20.83" height="4.33" transform="translate(1074.72 283.91) rotate(180)"/><rect class="cls-15" x="530.87" y="148.11" width="21.61" height="4.49" transform="translate(1083.36 300.71) rotate(180)"/><rect class="cls-5" x="518.89" y="148.11" width="6.51" height="4.49" transform="translate(1044.28 300.71) rotate(180)"/><rect class="cls-15" x="535.9" y="156.6" width="20.83" height="4.33" transform="translate(1092.63 317.52) rotate(180)"/><rect class="cls-15" x="522.79" y="156.6" width="8.06" height="4.33" transform="translate(1053.64 317.52) rotate(180)"/><rect class="cls-10" x="525.49" y="165" width="20.83" height="4.33" transform="translate(1071.8 334.32) rotate(180)"/><rect class="cls-5" x="530.27" y="173.4" width="20.83" height="4.33" transform="translate(1081.36 351.13) rotate(180)"/><rect class="cls-15" x="521.04" y="173.4" width="3.25" height="4.33" transform="translate(1045.34 351.13) rotate(180)"/><rect class="cls-6" x="540.68" y="181.81" width="16.05" height="4.33" transform="translate(1097.41 367.94) rotate(180)"/><rect class="cls-10" x="522.28" y="190.21" width="18.4" height="4.33" transform="translate(1062.96 384.74) rotate(180)"/><rect class="cls-13" x="393.26" y="242.19" width="161.91" height="103.53" rx="1.51"/><rect class="cls-14" x="394.61" y="242.19" width="159.22" height="101.81"/><rect class="cls-7" x="394.61" y="242.19" width="115.78" height="101.81"/><rect class="cls-6" x="514.36" y="248.42" width="18.58" height="3.92"/><rect class="cls-10" x="520.67" y="256.04" width="18.58" height="3.92"/><rect class="cls-10" x="514.36" y="263.67" width="32.38" height="3.92"/><rect class="cls-5" x="518.15" y="271.29" width="12.98" height="3.92"/><rect class="cls-10" x="535.81" y="271.29" width="12.98" height="3.92"/><rect class="cls-6" x="514.36" y="278.91" width="23.61" height="3.92"/><rect class="cls-10" x="522.35" y="286.54" width="18.58" height="3.92"/><rect class="cls-15" x="518.15" y="294.09" width="19.28" height="4.07"/><rect class="cls-5" x="542.32" y="294.09" width="5.8" height="4.07"/><rect class="cls-15" x="514.36" y="301.78" width="18.58" height="3.92"/><rect class="cls-15" x="537.45" y="301.78" width="7.19" height="3.92"/><rect class="cls-10" x="523.65" y="309.41" width="18.58" height="3.92"/><rect class="cls-5" x="519.39" y="317.03" width="18.58" height="3.92"/><rect class="cls-15" x="543.3" y="317.03" width="2.9" height="3.92"/><rect class="cls-6" x="514.36" y="324.66" width="14.32" height="3.92"/><rect class="cls-10" x="528.68" y="332.28" width="16.42" height="3.92"/><rect class="cls-13" x="56.89" y="90.91" width="178.46" height="114.11" rx="1.67"/><rect class="cls-14" x="58.37" y="90.91" width="175.49" height="112.21"/><rect class="cls-7" x="58.37" y="90.91" width="127.61" height="112.21"/><rect class="cls-6" x="207.83" y="190.21" width="20.48" height="4.33" transform="translate(436.14 384.74) rotate(180)"/><rect class="cls-10" x="200.88" y="181.81" width="20.48" height="4.33" transform="translate(422.23 367.94) rotate(180)"/><rect class="cls-10" x="192.62" y="173.4" width="35.69" height="4.33" transform="translate(420.93 351.13) rotate(180)"/><rect class="cls-5" x="209.84" y="165" width="14.3" height="4.33" transform="translate(433.98 334.32) rotate(180)"/><rect class="cls-10" x="190.37" y="165" width="14.3" height="4.33" transform="translate(395.04 334.32) rotate(180)"/><rect class="cls-6" x="202.29" y="156.6" width="26.02" height="4.33" transform="translate(430.6 317.52) rotate(180)"/><rect class="cls-10" x="199.02" y="148.19" width="20.48" height="4.33" transform="translate(418.53 300.71) rotate(180)"/><rect class="cls-15" x="202.88" y="139.71" width="21.26" height="4.49" transform="translate(427.02 283.91) rotate(180)"/><rect class="cls-5" x="191.1" y="139.71" width="6.4" height="4.49" transform="translate(388.59 283.91) rotate(180)"/><rect class="cls-15" x="207.83" y="131.39" width="20.48" height="4.33" transform="translate(436.14 267.1) rotate(180)"/><rect class="cls-15" x="194.94" y="131.39" width="7.92" height="4.33" transform="translate(397.8 267.1) rotate(180)"/><rect class="cls-10" x="197.59" y="122.98" width="20.48" height="4.33" transform="translate(415.66 250.29) rotate(180)"/><rect class="cls-5" x="202.29" y="114.58" width="20.48" height="4.33" transform="translate(425.06 233.49) rotate(180)"/><rect class="cls-15" x="193.22" y="114.58" width="3.2" height="4.33" transform="translate(389.63 233.49) rotate(180)"/><rect class="cls-6" x="212.53" y="106.18" width="15.78" height="4.33" transform="translate(440.84 216.68) rotate(180)"/><rect class="cls-10" x="194.43" y="97.78" width="18.1" height="4.33" transform="translate(406.96 199.88) rotate(180)"/><rect class="cls-13" x="65.16" y="242.19" width="161.91" height="103.53" rx="1.51"/><rect class="cls-14" x="66.51" y="242.19" width="159.22" height="101.81"/><rect class="cls-7" x="66.51" y="242.19" width="115.78" height="101.81"/><rect class="cls-6" x="186.26" y="332.28" width="18.58" height="3.92"/><rect class="cls-10" x="192.57" y="324.66" width="18.58" height="3.92"/><rect class="cls-10" x="186.26" y="317.03" width="32.38" height="3.92"/><rect class="cls-5" x="190.05" y="309.41" width="12.98" height="3.92"/><rect class="cls-10" x="207.71" y="309.41" width="12.98" height="3.92"/><rect class="cls-6" x="186.26" y="301.78" width="23.61" height="3.92"/><rect class="cls-10" x="194.25" y="294.16" width="18.58" height="3.92"/><rect class="cls-15" x="190.05" y="286.46" width="19.28" height="4.07"/><rect class="cls-5" x="214.22" y="286.46" width="5.8" height="4.07"/><rect class="cls-15" x="186.26" y="278.91" width="18.58" height="3.92"/><rect class="cls-15" x="209.35" y="278.91" width="7.19" height="3.92"/><rect class="cls-10" x="195.56" y="271.29" width="18.58" height="3.92"/><rect class="cls-5" x="191.29" y="263.67" width="18.58" height="3.92"/><rect class="cls-15" x="215.2" y="263.67" width="2.9" height="3.92"/><rect class="cls-6" x="186.26" y="256.04" width="14.32" height="3.92"/><rect class="cls-10" x="200.58" y="248.42" width="16.42" height="3.92"/><line class="cls-16" x1="420.3" y1="205.02" x2="420.3" y2="224.83"/><line class="cls-16" x1="463.45" y1="205.02" x2="463.45" y2="237.93"/><line class="cls-16" x1="498.57" y1="205.02" x2="498.57" y2="221.48"/><line class="cls-17" x1="420.3" y1="345.72" x2="420.3" y2="356.64"/><line class="cls-17" x1="463.45" y1="345.72" x2="463.45" y2="363.87"/><line class="cls-17" x1="498.57" y1="345.72" x2="498.57" y2="354.79"/><line class="cls-17" x1="167.95" y1="345.72" x2="167.95" y2="356.64"/><line class="cls-17" x1="124.8" y1="345.72" x2="124.8" y2="363.87"/><line class="cls-17" x1="89.68" y1="345.72" x2="89.68" y2="354.79"/><line class="cls-18" x1="167.95" y1="204.17" x2="167.95" y2="224.49"/><line class="cls-18" x1="124.8" y1="204.17" x2="124.8" y2="237.93"/><line class="cls-18" x1="89.68" y1="204.17" x2="89.68" y2="221.05"/><path class="cls-10" d="M176.43,134.52V183H71.51V163.28s3.48-.24,8.17-8.46,8.41-11.25,18-4.5,12.42,1.71,17-4.4,13.16-17,21.87-6.27,14.57,20.55,25.53,6.95S176.43,134.52,176.43,134.52Z"/><path class="cls-5" d="M176.43,144.59V183H71.51v-9.68s3.48-.25,8.17-8.47,8.41-11.25,18-4.5,12.42,1.72,17-4.4,13.16-17,21.87-6.26,14.57,20.54,25.53,7S176.43,144.59,176.43,144.59Z"/><rect class="cls-10" x="409.87" y="116.74" width="88.7" height="11.82"/><rect class="cls-10" x="409.87" y="138.29" width="88.7" height="11.82"/><rect class="cls-10" x="409.87" y="159.7" width="88.7" height="11.82"/><rect class="cls-5" x="409.87" y="116.74" width="21.86" height="11.82"/><rect class="cls-5" x="409.87" y="159.7" width="25.19" height="11.82"/><rect class="cls-5" x="409.87" y="138.29" width="36.93" height="11.82"/><polygon class="cls-10" points="500.6 282.93 500.6 294.73 483.56 284.6 465.97 295.73 451.6 286.38 435.68 295.73 419.1 284.6 404.39 293.28 404.39 281.48 419.1 272.8 435.68 283.94 451.6 274.58 465.97 283.94 483.56 272.8 500.6 282.93"/><polygon class="cls-5" points="500.6 294.73 500.6 314.3 404.39 314.3 404.39 293.28 419.1 284.6 435.68 295.73 451.6 286.38 465.97 295.73 483.56 284.6 500.6 294.73"/><circle class="cls-5" cx="131.42" cy="294.16" r="32.97"/><path class="cls-10" d="M131.42,294.16l27.22,18.61a33,33,0,0,0,5.75-18.61Z"/><polyline class="cls-19" points="247.74 324.66 313.76 324.66 313.76 298.09"/><polyline class="cls-19" points="312.68 163.33 312.68 138.29 378.83 138.29"/><polyline class="cls-19" points="355.85 275.22 367.09 275.22 367.09 299.34 384.99 299.34"/><polyline class="cls-19" points="275.13 171.52 275.13 154.39 247.74 154.39"/><g class="cls-20"><circle class="cls-21" cx="351.02" cy="324.66" r="14.59"/><circle class="cls-22" cx="351.02" cy="324.66" r="10.99"/><circle class="cls-23" cx="351.02" cy="324.66" r="8.28"/></g><polyline class="cls-24" points="345.87 323.15 349.69 326.96 360.13 318.52"/></svg>